<svg xmlns="http://www.w3.org/2000/svg" xmlns:xlink="http://www.w3.org/1999/xlink" xml:space="preserve" viewBox="0 0 2000 2000"><defs><linearGradient id="a"><stop offset="0" stop-color="#fc992e"/><stop offset="1" stop-color="#e40c3e"/></linearGradient><linearGradient xlink:href="#a" id="b" x1="847.4484" x2="1188.1826" y1="792.3547" y2="1257.5486" gradientUnits="userSpaceOnUse"/></defs><path fill="none" d="M0 0h2000v2000H0z"/><path fill="url(#b)" d="M800.43 1087.87c0 81.41 48.78 151.39 118.68 182.43h52.33L810.7 1024.69c-6.63 19.86-10.27 41.09-10.27 63.18zm388.87-63.19-160.74 245.63h52.33c69.9-31.04 118.68-101.02 118.68-182.43 0-22.1-3.64-43.33-10.27-63.2zm-50.73-80.37 49.03-132.23c2.59-6.98 3.87-14.25 3.87-21.3-.04-16.37-6.58-31.53-17.43-42.68-5.44-5.59-11.98-10.19-19.44-13.41-7.42-3.22-15.71-5.01-24.3-5.01H869.69c-8.59 0-16.88 1.79-24.3 5.01-11.18 4.82-20.35 12.79-26.75 22.47-6.43 9.72-10.12 21.34-10.12 33.61 0 7.05 1.24 14.32 3.84 21.3l49.07 132.23c-20.72 19.99-37.09 44.43-47.64 71.76l166.39 254.23h39.64l166.39-254.23c-10.55-27.32-26.96-51.76-47.64-71.75zM860.34 794.29c-.47-1.32-.66-2.41-.66-3.51 0-1.28.26-2.52.73-3.73.77-1.79 2.08-3.43 3.65-4.49 1.61-1.1 3.25-1.72 5.63-1.72h260.62c1.57 0 2.81.29 3.98.77 1.72.77 3.25 2.05 4.35 3.73 1.1 1.68 1.68 3.58 1.68 5.44 0 1.1-.18 2.19-.66 3.51l-31.02 83.56-9.64 26.05-3.29 8.84s-.04 0-.04-.04l-6.25 16.59-.88-20.28c-26.67-13.26-56.74-20.72-88.57-20.72-31.79 0-61.86 7.45-88.53 20.72l-.88 20.28zm139.65 439.44c-5.92 0-10.74-4.82-10.74-10.74 0-5.96 4.82-10.78 10.74-10.78 5.96 0 10.78 4.82 10.78 10.78-.01 5.91-4.83 10.74-10.78 10.74zm0-50.21c-5.92 0-10.74-4.82-10.74-10.74 0-5.96 4.82-10.78 10.74-10.78 5.96 0 10.78 4.82 10.78 10.78-.01 5.92-4.83 10.74-10.78 10.74zm0-50.2c-5.92 0-10.74-4.82-10.74-10.74 0-5.96 4.82-10.78 10.74-10.78 5.96 0 10.78 4.82 10.78 10.78-.01 5.92-4.83 10.74-10.78 10.74zm0-50.2c-5.92 0-10.74-4.82-10.74-10.74 0-5.96 4.82-10.78 10.74-10.78 5.96 0 10.78 4.82 10.78 10.78-.01 5.92-4.83 10.74-10.78 10.74zm97.7-12.53-73.29-42.97v.8c0 2.89-2.34 5.22-5.23 5.22h-38.33c-2.89 0-5.26-2.34-5.26-5.22v-.8l-73.26 42.97c-9.57 5.59-21.23-2.74-19.04-13.59l7.42-37.16c.01-.02.01-.05.01-.07l7.13 10.1-8.49-29.87-6.07-30.35c-2.19-10.85 9.46-19.15 19.04-13.56l23.06 13.52 50.2 29.41v-.8c0-2.89 2.38-5.23 5.26-5.23h38.33c2.89 0 5.23 2.34 5.23 5.23v.8l50.24-29.41 23.06-13.52c9.54-5.59 21.23 2.7 19.04 13.56l-5.77 28.84-8.92 31.38 7.21-10.2c.01.06.01.12.03.18l7.45 37.16c2.18 10.84-9.52 19.17-19.05 13.58z" transform="translate(-1624.2036 -1624.1905) scale(2.6242)"/></svg>