<?xml version="1.0" encoding="UTF-8" standalone="no"?>
<!-- Generator: Adobe Illustrator 23.0.3, SVG Export Plug-In . SVG Version: 6.00 Build 0)  -->

<svg
   version="1.1"
   id="Layer_1"
   x="0px"
   y="0px"
   viewBox="0 0 2000 2000"
   xml:space="preserve"
   sodipodi:docname="logo.svg"
   inkscape:version="1.2.2 (b0a8486, 2022-12-01)"
   inkscape:export-filename="logo-transparent.webp"
   inkscape:export-xdpi="9.6000004"
   inkscape:export-ydpi="9.6000004"
   style="enable-background:new 0 0 2000 2000;"
   xmlns:inkscape="http://www.inkscape.org/namespaces/inkscape"
   xmlns:sodipodi="http://sodipodi.sourceforge.net/DTD/sodipodi-0.dtd"
   xmlns="http://www.w3.org/2000/svg"
   xmlns:svg="http://www.w3.org/2000/svg"><defs
   id="defs1933" /><sodipodi:namedview
   id="namedview1931"
   pagecolor="#ffffff"
   bordercolor="#666666"
   borderopacity="1.0"
   inkscape:pageshadow="2"
   inkscape:pageopacity="0.0"
   inkscape:pagecheckerboard="0"
   showgrid="false"
   inkscape:zoom="0.18676833"
   inkscape:cx="-795.10268"
   inkscape:cy="1011.9489"
   inkscape:window-width="1440"
   inkscape:window-height="654"
   inkscape:window-x="0"
   inkscape:window-y="120"
   inkscape:window-maximized="0"
   inkscape:current-layer="Layer_1"
   inkscape:showpageshadow="2"
   inkscape:deskcolor="#d1d1d1" />
<style
   type="text/css"
   id="style1916">
	.st0{fill:#F7CFA4;}
	.st1{display:none;}
	.st2{display:none;fill:none;stroke:#000000;stroke-width:14;stroke-linecap:round;stroke-linejoin:round;stroke-miterlimit:10;}
	.st3{display:inline;}
	.st4{fill:#FFFFFF;}
	.st5{display:inline;fill:#FFFFFF;}
	.st6{display:none;fill:none;stroke:#FFFFFF;stroke-width:2;stroke-miterlimit:10;}
</style>
<rect
   class="st0"
   width="2000"
   height="2000"
   id="rect1918"
   style="fill:none;fill-opacity:1" />
<g
   id="g1928"
   transform="matrix(2.6242036,0,0,2.6242036,-1624.2036,-1624.1905)"
   style="fill:#000000">
	<g
   id="g1926"
   style="fill:#000000">
		<path
   d="m 800.43,1087.87 c 0,81.41 48.78,151.39 118.68,182.43 h 52.33 L 810.7,1024.69 c -6.63,19.86 -10.27,41.09 -10.27,63.18 z"
   id="path1920"
   style="fill:#000000" />
		<path
   d="m 1189.3,1024.68 -160.74,245.63 h 52.33 c 69.9,-31.04 118.68,-101.02 118.68,-182.43 0,-22.1 -3.64,-43.33 -10.27,-63.2 z"
   id="path1922"
   style="fill:#000000" />
		<path
   d="m 1138.57,944.31 49.03,-132.23 c 2.59,-6.98 3.87,-14.25 3.87,-21.3 -0.04,-16.37 -6.58,-31.53 -17.43,-42.68 -5.44,-5.59 -11.98,-10.19 -19.44,-13.41 -7.42,-3.22 -15.71,-5.01 -24.3,-5.01 H 869.69 c -8.59,0 -16.88,1.79 -24.3,5.01 -11.18,4.82 -20.35,12.79 -26.75,22.47 -6.43,9.72 -10.12,21.34 -10.12,33.61 0,7.05 1.24,14.32 3.84,21.3 l 49.07,132.23 c -20.72,19.99 -37.09,44.43 -47.64,71.76 l 166.39,254.23 h 39.64 l 166.39,-254.23 c -10.55,-27.32 -26.96,-51.76 -47.64,-71.75 z M 860.34,794.29 c -0.47,-1.32 -0.66,-2.41 -0.66,-3.51 0,-1.28 0.26,-2.52 0.73,-3.73 0.77,-1.79 2.08,-3.43 3.65,-4.49 1.61,-1.1 3.25,-1.72 5.63,-1.72 h 260.62 c 1.57,0 2.81,0.29 3.98,0.77 1.72,0.77 3.25,2.05 4.35,3.73 1.1,1.68 1.68,3.58 1.68,5.44 0,1.1 -0.18,2.19 -0.66,3.51 l -31.02,83.56 -9.64,26.05 -3.29,8.84 c 0,0 -0.04,0 -0.04,-0.04 l -6.25,16.59 -0.88,-20.28 c -26.67,-13.26 -56.74,-20.72 -88.57,-20.72 -31.79,0 -61.86,7.45 -88.53,20.72 l -0.88,20.28 z m 139.65,439.44 c -5.92,0 -10.74,-4.82 -10.74,-10.74 0,-5.96 4.82,-10.78 10.74,-10.78 5.96,0 10.78,4.82 10.78,10.78 -0.01,5.91 -4.83,10.74 -10.78,10.74 z m 0,-50.21 c -5.92,0 -10.74,-4.82 -10.74,-10.74 0,-5.96 4.82,-10.78 10.74,-10.78 5.96,0 10.78,4.82 10.78,10.78 -0.01,5.92 -4.83,10.74 -10.78,10.74 z m 0,-50.2 c -5.92,0 -10.74,-4.82 -10.74,-10.74 0,-5.96 4.82,-10.78 10.74,-10.78 5.96,0 10.78,4.82 10.78,10.78 -0.01,5.92 -4.83,10.74 -10.78,10.74 z m 0,-50.2 c -5.92,0 -10.74,-4.82 -10.74,-10.74 0,-5.96 4.82,-10.78 10.74,-10.78 5.96,0 10.78,4.82 10.78,10.78 -0.01,5.92 -4.83,10.74 -10.78,10.74 z m 97.7,-12.53 -73.29,-42.97 v 0.8 c 0,2.89 -2.34,5.22 -5.23,5.22 h -38.33 c -2.89,0 -5.26,-2.34 -5.26,-5.22 v -0.8 l -73.26,42.97 c -9.57,5.59 -21.23,-2.74 -19.04,-13.59 l 7.42,-37.16 c 0.01,-0.02 0.01,-0.05 0.01,-0.07 l 7.13,10.1 -8.49,-29.87 -6.07,-30.35 c -2.19,-10.85 9.46,-19.15 19.04,-13.56 l 23.06,13.52 50.2,29.41 v -0.8 c 0,-2.89 2.38,-5.23 5.26,-5.23 h 38.33 c 2.89,0 5.23,2.34 5.23,5.23 v 0.8 l 50.24,-29.41 23.06,-13.52 c 9.54,-5.59 21.23,2.7 19.04,13.56 l -5.77,28.84 v 0 l -8.92,31.38 7.21,-10.2 c 0.01,0.06 0.01,0.12 0.03,0.18 l 7.45,37.16 c 2.18,10.84 -9.52,19.17 -19.05,13.58 z"
   id="path1924"
   style="fill:#000000" />
	</g>
</g>
</svg>
